<?xml version="1.0" standalone="no"?>
<!DOCTYPE svg PUBLIC "-//W3C//DTD SVG 20010904//EN"
 "http://www.w3.org/TR/2001/REC-SVG-20010904/DTD/svg10.dtd">
<svg version="1.0" xmlns="http://www.w3.org/2000/svg"
 width="159.000000pt" height="158.000000pt" viewBox="0 0 159.000000 158.000000"
 preserveAspectRatio="xMidYMid meet">

<g transform="translate(0.000000,158.000000) scale(0.100000,-0.100000)"
fill="#000000" stroke="none">
<path d="M484 1062 c-160 -157 -194 -196 -194 -221 0 -5 111 -122 248 -259
170 -172 258 -253 281 -260 19 -7 89 -12 155 -12 120 0 146 6 146 36 0 6 -109
120 -242 252 l-241 240 18 29 c10 15 87 97 171 181 188 188 189 182 -24 182
l-147 0 -171 -168z"/>
<path d="M1033 937 c-26 -28 -44 -57 -47 -78 -5 -31 -1 -40 48 -92 50 -54 55
-57 81 -47 16 6 51 33 78 61 59 60 58 77 -7 144 -30 32 -54 47 -77 50 -30 5
-39 0 -76 -38z"/>
</g>
</svg>
